<svg width="586" height="86" viewBox="0 0 586 86" fill="none" xmlns="http://www.w3.org/2000/svg">
<rect width="35" height="35" transform="translate(141 17)" fill="#B80F0A"/>
<path d="M165.792 25.75H168.709V28.6667H165.792V25.75ZM161.417 25.75H164.334V28.6667H161.417V25.75ZM165.792 40.3333H168.709V43.25H165.792V40.3333ZM161.417 40.3333H164.334V43.25H161.417V40.3333Z" fill="white"/>
<rect width="35" height="35" transform="translate(410 17)" fill="#B80F0A"/>
<path d="M272.455 65.64C273.221 65.64 273.831 65.7967 274.285 66.11C274.738 66.4167 274.965 66.8767 274.965 67.49C274.965 67.9433 274.851 68.3233 274.625 68.63C274.405 68.93 274.101 69.1567 273.715 69.31C273.335 69.4567 272.898 69.53 272.405 69.53L272.175 68.75C272.781 68.75 273.318 68.8333 273.785 69C274.258 69.1667 274.631 69.4067 274.905 69.72C275.178 70.0267 275.315 70.3967 275.315 70.83C275.315 71.23 275.241 71.57 275.095 71.85C274.955 72.1233 274.761 72.3467 274.515 72.52C274.275 72.6867 274.001 72.81 273.695 72.89C273.388 72.9633 273.071 73 272.745 73H270.295V65.64H272.455ZM272.625 68.65C272.911 68.65 273.121 68.5633 273.255 68.39C273.395 68.2167 273.465 68.02 273.465 67.8C273.465 67.5467 273.378 67.3567 273.205 67.23C273.038 67.1033 272.811 67.04 272.525 67.04H271.745V68.65H272.625ZM272.675 71.65C272.888 71.65 273.081 71.6233 273.255 71.57C273.428 71.51 273.565 71.42 273.665 71.3C273.765 71.1733 273.815 71.0167 273.815 70.83C273.815 70.6167 273.755 70.4567 273.635 70.35C273.515 70.2367 273.358 70.16 273.165 70.12C272.978 70.0733 272.781 70.05 272.575 70.05H271.745V71.65H272.675ZM276.539 65.11H277.939V73H276.539V65.11ZM279.041 70.76C279.041 70.3133 279.144 69.9133 279.351 69.56C279.564 69.2067 279.861 68.93 280.241 68.73C280.621 68.5233 281.058 68.42 281.551 68.42C282.051 68.42 282.484 68.5233 282.851 68.73C283.218 68.93 283.498 69.2067 283.691 69.56C283.891 69.9133 283.991 70.3133 283.991 70.76C283.991 71.2067 283.891 71.61 283.691 71.97C283.498 72.3233 283.218 72.6033 282.851 72.81C282.484 73.0167 282.044 73.12 281.531 73.12C281.051 73.12 280.621 73.0267 280.241 72.84C279.868 72.6533 279.574 72.3833 279.361 72.03C279.148 71.6767 279.041 71.2533 279.041 70.76ZM280.451 70.77C280.451 70.9967 280.498 71.2033 280.591 71.39C280.684 71.57 280.811 71.7133 280.971 71.82C281.131 71.9267 281.311 71.98 281.511 71.98C281.731 71.98 281.921 71.9267 282.081 71.82C282.241 71.7133 282.364 71.57 282.451 71.39C282.538 71.2033 282.581 70.9967 282.581 70.77C282.581 70.5367 282.538 70.33 282.451 70.15C282.364 69.97 282.241 69.8267 282.081 69.72C281.921 69.6133 281.731 69.56 281.511 69.56C281.311 69.56 281.131 69.6133 280.971 69.72C280.811 69.8267 280.684 69.97 280.591 70.15C280.498 70.33 280.451 70.5367 280.451 70.77ZM288.804 72.61C288.611 72.7633 288.367 72.8867 288.074 72.98C287.787 73.0733 287.504 73.12 287.224 73.12C286.724 73.12 286.287 73.03 285.914 72.85C285.547 72.6633 285.261 72.4 285.054 72.06C284.854 71.7133 284.754 71.2967 284.754 70.81C284.754 70.3233 284.864 69.91 285.084 69.57C285.304 69.2233 285.591 68.96 285.944 68.78C286.304 68.6 286.681 68.51 287.074 68.51C287.467 68.51 287.807 68.5633 288.094 68.67C288.387 68.7767 288.637 68.9167 288.844 69.09L288.164 69.99C288.071 69.9167 287.941 69.8433 287.774 69.77C287.614 69.69 287.424 69.65 287.204 69.65C287.011 69.65 286.834 69.7 286.674 69.8C286.514 69.9 286.387 70.0367 286.294 70.21C286.201 70.3833 286.154 70.5833 286.154 70.81C286.154 71.0233 286.204 71.22 286.304 71.4C286.404 71.58 286.541 71.7233 286.714 71.83C286.894 71.93 287.104 71.98 287.344 71.98C287.497 71.98 287.637 71.96 287.764 71.92C287.897 71.8733 288.011 71.81 288.104 71.73L288.804 72.61ZM289.879 73V65.11H291.279V73H289.879ZM292.389 70.03L294.369 73H292.739L291.469 70.83L292.389 70.03ZM290.859 71.79L290.719 70.46L293.359 68.52L294.209 69.27L290.859 71.79ZM298.941 72.61C298.747 72.7633 298.504 72.8867 298.211 72.98C297.924 73.0733 297.641 73.12 297.361 73.12C296.861 73.12 296.424 73.03 296.051 72.85C295.684 72.6633 295.397 72.4 295.191 72.06C294.991 71.7133 294.891 71.2967 294.891 70.81C294.891 70.3233 295.001 69.91 295.221 69.57C295.441 69.2233 295.727 68.96 296.081 68.78C296.441 68.6 296.817 68.51 297.211 68.51C297.604 68.51 297.944 68.5633 298.231 68.67C298.524 68.7767 298.774 68.9167 298.981 69.09L298.301 69.99C298.207 69.9167 298.077 69.8433 297.911 69.77C297.751 69.69 297.561 69.65 297.341 69.65C297.147 69.65 296.971 69.7 296.811 69.8C296.651 69.9 296.524 70.0367 296.431 70.21C296.337 70.3833 296.291 70.5833 296.291 70.81C296.291 71.0233 296.341 71.22 296.441 71.4C296.541 71.58 296.677 71.7233 296.851 71.83C297.031 71.93 297.241 71.98 297.481 71.98C297.634 71.98 297.774 71.96 297.901 71.92C298.034 71.8733 298.147 71.81 298.241 71.73L298.941 72.61ZM300.016 73V65.11H301.386V69.51L301.376 69.34C301.529 69.0667 301.746 68.8467 302.026 68.68C302.306 68.5067 302.649 68.42 303.056 68.42C303.469 68.42 303.813 68.5433 304.086 68.79C304.366 69.03 304.509 69.3433 304.516 69.73V73H303.116V70.25C303.109 70.0567 303.056 69.9033 302.956 69.79C302.863 69.67 302.703 69.61 302.476 69.61C302.263 69.61 302.076 69.68 301.916 69.82C301.756 69.96 301.633 70.15 301.546 70.39C301.459 70.63 301.416 70.9067 301.416 71.22V73H300.016ZM307.793 73.12C307.387 73.12 307.017 73.04 306.683 72.88C306.357 72.7133 306.097 72.46 305.903 72.12C305.71 71.78 305.613 71.3467 305.613 70.82C305.613 70.3267 305.713 69.9 305.913 69.54C306.113 69.18 306.377 68.9033 306.703 68.71C307.03 68.51 307.377 68.41 307.743 68.41C308.177 68.41 308.503 68.4833 308.723 68.63C308.95 68.77 309.137 68.9267 309.283 69.1L309.223 69.27L309.353 68.63H310.653V73H309.253V72.05L309.363 72.35C309.35 72.35 309.31 72.39 309.243 72.47C309.177 72.5433 309.077 72.6333 308.943 72.74C308.817 72.84 308.657 72.9267 308.463 73C308.277 73.08 308.053 73.12 307.793 73.12ZM308.193 71.98C308.36 71.98 308.51 71.9567 308.643 71.91C308.777 71.8567 308.893 71.7833 308.993 71.69C309.093 71.59 309.18 71.4667 309.253 71.32V70.25C309.2 70.1033 309.12 69.98 309.013 69.88C308.907 69.7733 308.78 69.6933 308.633 69.64C308.487 69.58 308.323 69.55 308.143 69.55C307.943 69.55 307.757 69.6033 307.583 69.71C307.417 69.81 307.283 69.95 307.183 70.13C307.083 70.31 307.033 70.5167 307.033 70.75C307.033 70.9833 307.087 71.1933 307.193 71.38C307.3 71.5667 307.44 71.7133 307.613 71.82C307.793 71.9267 307.987 71.98 308.193 71.98ZM312.096 68.63H313.496V73H312.096V68.63ZM312.066 67.08C312.066 66.8733 312.146 66.7033 312.306 66.57C312.473 66.4367 312.649 66.37 312.836 66.37C313.023 66.37 313.193 66.4367 313.346 66.57C313.506 66.7033 313.586 66.8733 313.586 67.08C313.586 67.2867 313.506 67.4567 313.346 67.59C313.193 67.7167 313.023 67.78 312.836 67.78C312.649 67.78 312.473 67.7167 312.306 67.59C312.146 67.4567 312.066 67.2867 312.066 67.08ZM316.208 68.63L316.318 69.41L316.298 69.34C316.451 69.0667 316.668 68.8467 316.948 68.68C317.228 68.5067 317.571 68.42 317.978 68.42C318.391 68.42 318.734 68.5433 319.008 68.79C319.288 69.03 319.431 69.3433 319.438 69.73V73H318.038V70.25C318.031 70.0567 317.978 69.9033 317.878 69.79C317.784 69.67 317.624 69.61 317.398 69.61C317.184 69.61 316.998 69.68 316.838 69.82C316.678 69.96 316.554 70.15 316.468 70.39C316.381 70.63 316.338 70.9067 316.338 71.22V73H314.938V68.63H316.208Z" fill="white"/>
<rect x="124.25" width="71" height="86" rx="5" fill="#B80F0A"/>
<rect x="393.25" width="71" height="86" rx="5" fill="#B80F0A"/>
<path d="M15 20.5H31.25V23H15V20.5ZM15 43H31.25V45.5H15V43ZM1.25 31.75H17.5V34.25H1.25V31.75ZM5 26.75C4.0111 26.75 3.0444 26.4568 2.22215 25.9074C1.39991 25.3579 0.759043 24.5771 0.380605 23.6634C0.00216641 22.7498 -0.0968503 21.7445 0.0960758 20.7746C0.289002 19.8046 0.765205 18.9137 1.46447 18.2145C2.16373 17.5152 3.05465 17.039 4.02455 16.8461C4.99446 16.6531 5.99979 16.7522 6.91342 17.1306C7.82705 17.509 8.60794 18.1499 9.15735 18.9722C9.70676 19.7944 10 20.7611 10 21.75C10 23.0761 9.47322 24.3479 8.53554 25.2855C7.59785 26.2232 6.32608 26.75 5 26.75V26.75ZM5 19.25C4.50555 19.25 4.0222 19.3966 3.61108 19.6713C3.19995 19.946 2.87952 20.3365 2.6903 20.7933C2.50108 21.2501 2.45158 21.7528 2.54804 22.2377C2.6445 22.7227 2.8826 23.1681 3.23224 23.5178C3.58187 23.8674 4.02732 24.1055 4.51228 24.202C4.99723 24.2984 5.4999 24.2489 5.95671 24.0597C6.41353 23.8705 6.80397 23.5501 7.07868 23.1389C7.35338 22.7278 7.5 22.2445 7.5 21.75C7.5 21.087 7.23661 20.4511 6.76777 19.9822C6.29893 19.5134 5.66304 19.25 5 19.25V19.25ZM5 49.25C4.0111 49.25 3.0444 48.9568 2.22215 48.4074C1.39991 47.8579 0.759043 47.077 0.380605 46.1634C0.00216641 45.2498 -0.0968503 44.2445 0.0960758 43.2746C0.289002 42.3046 0.765205 41.4137 1.46447 40.7145C2.16373 40.0152 3.05465 39.539 4.02455 39.3461C4.99446 39.1531 5.99979 39.2522 6.91342 39.6306C7.82705 40.009 8.60794 40.6499 9.15735 41.4722C9.70676 42.2944 10 43.2611 10 44.25C10 45.5761 9.47322 46.8479 8.53554 47.7855C7.59785 48.7232 6.32608 49.25 5 49.25V49.25ZM5 41.75C4.50555 41.75 4.0222 41.8966 3.61108 42.1713C3.19995 42.446 2.87952 42.8365 2.6903 43.2933C2.50108 43.7501 2.45158 44.2528 2.54804 44.7377C2.6445 45.2227 2.8826 45.6681 3.23224 46.0178C3.58187 46.3674 4.02732 46.6055 4.51228 46.702C4.99723 46.7984 5.4999 46.7489 5.95671 46.5597C6.41353 46.3705 6.80397 46.0501 7.07868 45.6389C7.35338 45.2278 7.5 44.7445 7.5 44.25C7.5 43.587 7.23661 42.9511 6.76777 42.4822C6.29893 42.0134 5.66304 41.75 5 41.75ZM27.5 38C26.5111 38 25.5444 37.7068 24.7222 37.1574C23.8999 36.6079 23.259 35.827 22.8806 34.9134C22.5022 33.9998 22.4031 32.9945 22.5961 32.0246C22.789 31.0546 23.2652 30.1637 23.9645 29.4645C24.6637 28.7652 25.5546 28.289 26.5246 28.0961C27.4945 27.9031 28.4998 28.0022 29.4134 28.3806C30.327 28.759 31.1079 29.3999 31.6574 30.2222C32.2068 31.0444 32.5 32.0111 32.5 33C32.5 34.3261 31.9732 35.5979 31.0355 36.5355C30.0979 37.4732 28.8261 38 27.5 38ZM27.5 30.5C27.0055 30.5 26.5222 30.6466 26.1111 30.9213C25.7 31.196 25.3795 31.5865 25.1903 32.0433C25.0011 32.5001 24.9516 33.0028 25.048 33.4877C25.1445 33.9727 25.3826 34.4181 25.7322 34.7678C26.0819 35.1174 26.5273 35.3555 27.0123 35.452C27.4972 35.5484 27.9999 35.4989 28.4567 35.3097C28.9135 35.1205 29.304 34.8001 29.5787 34.3889C29.8534 33.9778 30 33.4945 30 33C30 32.337 29.7366 31.7011 29.2678 31.2322C28.7989 30.7634 28.163 30.5 27.5 30.5Z" fill="#B80F0A"/>
<path d="M170.417 23.375H147.084C146.31 23.375 145.568 23.6823 145.021 24.2293C144.474 24.7763 144.167 25.5181 144.167 26.2917V32.125C144.167 32.8985 144.474 33.6404 145.021 34.1874C145.568 34.7344 146.31 35.0417 147.084 35.0417H170.417C171.191 35.0417 171.932 34.7344 172.479 34.1874C173.026 33.6404 173.334 32.8985 173.334 32.125V26.2917C173.334 25.5181 173.026 24.7763 172.479 24.2293C171.932 23.6823 171.191 23.375 170.417 23.375ZM147.084 32.125V26.2917H170.417V32.125H147.084ZM170.417 37.9583H147.084C146.31 37.9583 145.568 38.2656 145.021 38.8126C144.474 39.3596 144.167 40.1015 144.167 40.875V46.7083C144.167 47.4819 144.474 48.2237 145.021 48.7707C145.568 49.3177 146.31 49.625 147.084 49.625H170.417C171.191 49.625 171.932 49.3177 172.479 48.7707C173.026 48.2237 173.334 47.4819 173.334 46.7083V40.875C173.334 40.1015 173.026 39.3596 172.479 38.8126C171.932 38.2656 171.191 37.9583 170.417 37.9583ZM147.084 46.7083V40.875H170.417V46.7083H147.084Z" fill="white"/>
<path d="M406.541 76V68.64H408.741C409.481 68.64 410.111 68.75 410.631 68.97C411.151 69.19 411.567 69.4833 411.881 69.85C412.201 70.2167 412.434 70.6267 412.581 71.08C412.727 71.5333 412.801 71.99 412.801 72.45C412.801 72.9967 412.701 73.49 412.501 73.93C412.307 74.3633 412.041 74.7367 411.701 75.05C411.361 75.3567 410.967 75.5933 410.521 75.76C410.074 75.92 409.601 76 409.101 76H406.541ZM407.991 74.6H408.851C409.217 74.6 409.551 74.5533 409.851 74.46C410.151 74.36 410.407 74.2167 410.621 74.03C410.841 73.8433 411.007 73.61 411.121 73.33C411.241 73.0433 411.301 72.7167 411.301 72.35C411.301 71.87 411.221 71.48 411.061 71.18C410.907 70.8733 410.714 70.6367 410.481 70.47C410.254 70.3033 410.021 70.19 409.781 70.13C409.541 70.0633 409.337 70.03 409.171 70.03H407.991V74.6ZM415.866 76.12C415.459 76.12 415.089 76.04 414.756 75.88C414.429 75.7133 414.169 75.46 413.976 75.12C413.782 74.78 413.686 74.3467 413.686 73.82C413.686 73.3267 413.786 72.9 413.986 72.54C414.186 72.18 414.449 71.9033 414.776 71.71C415.102 71.51 415.449 71.41 415.816 71.41C416.249 71.41 416.576 71.4833 416.796 71.63C417.022 71.77 417.209 71.9267 417.356 72.1L417.296 72.27L417.426 71.63H418.726V76H417.326V75.05L417.436 75.35C417.422 75.35 417.382 75.39 417.316 75.47C417.249 75.5433 417.149 75.6333 417.016 75.74C416.889 75.84 416.729 75.9267 416.536 76C416.349 76.08 416.126 76.12 415.866 76.12ZM416.266 74.98C416.432 74.98 416.582 74.9567 416.716 74.91C416.849 74.8567 416.966 74.7833 417.066 74.69C417.166 74.59 417.252 74.4667 417.326 74.32V73.25C417.272 73.1033 417.192 72.98 417.086 72.88C416.979 72.7733 416.852 72.6933 416.706 72.64C416.559 72.58 416.396 72.55 416.216 72.55C416.016 72.55 415.829 72.6033 415.656 72.71C415.489 72.81 415.356 72.95 415.256 73.13C415.156 73.31 415.106 73.5167 415.106 73.75C415.106 73.9833 415.159 74.1933 415.266 74.38C415.372 74.5667 415.512 74.7133 415.686 74.82C415.866 74.9267 416.059 74.98 416.266 74.98ZM420.578 69.71H421.978V71.61H423.038V72.7H421.978V76H420.578V72.7H419.898V71.61H420.578V69.71ZM425.944 76.12C425.537 76.12 425.167 76.04 424.834 75.88C424.507 75.7133 424.247 75.46 424.054 75.12C423.86 74.78 423.764 74.3467 423.764 73.82C423.764 73.3267 423.864 72.9 424.064 72.54C424.264 72.18 424.527 71.9033 424.854 71.71C425.18 71.51 425.527 71.41 425.894 71.41C426.327 71.41 426.654 71.4833 426.874 71.63C427.1 71.77 427.287 71.9267 427.434 72.1L427.374 72.27L427.504 71.63H428.804V76H427.404V75.05L427.514 75.35C427.5 75.35 427.46 75.39 427.394 75.47C427.327 75.5433 427.227 75.6333 427.094 75.74C426.967 75.84 426.807 75.9267 426.614 76C426.427 76.08 426.204 76.12 425.944 76.12ZM426.344 74.98C426.51 74.98 426.66 74.9567 426.794 74.91C426.927 74.8567 427.044 74.7833 427.144 74.69C427.244 74.59 427.33 74.4667 427.404 74.32V73.25C427.35 73.1033 427.27 72.98 427.164 72.88C427.057 72.7733 426.93 72.6933 426.784 72.64C426.637 72.58 426.474 72.55 426.294 72.55C426.094 72.55 425.907 72.6033 425.734 72.71C425.567 72.81 425.434 72.95 425.334 73.13C425.234 73.31 425.184 73.5167 425.184 73.75C425.184 73.9833 425.237 74.1933 425.344 74.38C425.45 74.5667 425.59 74.7133 425.764 74.82C425.944 74.9267 426.137 74.98 426.344 74.98ZM433.116 76.12C432.75 76.12 432.44 76.06 432.186 75.94C431.94 75.8133 431.723 75.65 431.536 75.45L431.646 75.15V76H430.246V68.11H431.636V72.38V71.93C431.81 71.7833 432.04 71.66 432.326 71.56C432.613 71.46 432.94 71.41 433.306 71.41C433.686 71.41 434.033 71.5 434.346 71.68C434.66 71.86 434.91 72.1233 435.096 72.47C435.29 72.81 435.386 73.2267 435.386 73.72C435.386 74.2133 435.28 74.64 435.066 75C434.86 75.36 434.583 75.6367 434.236 75.83C433.89 76.0233 433.516 76.12 433.116 76.12ZM432.806 74.94C433.013 74.94 433.203 74.8867 433.376 74.78C433.556 74.6733 433.7 74.5267 433.806 74.34C433.913 74.1533 433.966 73.9433 433.966 73.71C433.966 73.4767 433.913 73.27 433.806 73.09C433.7 72.91 433.556 72.77 433.376 72.67C433.203 72.5633 433.013 72.51 432.806 72.51C432.626 72.51 432.456 72.54 432.296 72.6C432.143 72.6533 432.01 72.7333 431.896 72.84C431.79 72.94 431.706 73.0633 431.646 73.21V74.28C431.726 74.4267 431.82 74.55 431.926 74.65C432.04 74.7433 432.17 74.8167 432.316 74.87C432.463 74.9167 432.626 74.94 432.806 74.94ZM438.327 76.12C437.92 76.12 437.55 76.04 437.217 75.88C436.89 75.7133 436.63 75.46 436.437 75.12C436.243 74.78 436.147 74.3467 436.147 73.82C436.147 73.3267 436.247 72.9 436.447 72.54C436.647 72.18 436.91 71.9033 437.237 71.71C437.563 71.51 437.91 71.41 438.277 71.41C438.71 71.41 439.037 71.4833 439.257 71.63C439.483 71.77 439.67 71.9267 439.817 72.1L439.757 72.27L439.887 71.63H441.187V76H439.787V75.05L439.897 75.35C439.883 75.35 439.843 75.39 439.777 75.47C439.71 75.5433 439.61 75.6333 439.477 75.74C439.35 75.84 439.19 75.9267 438.997 76C438.81 76.08 438.587 76.12 438.327 76.12ZM438.727 74.98C438.893 74.98 439.043 74.9567 439.177 74.91C439.31 74.8567 439.427 74.7833 439.527 74.69C439.627 74.59 439.713 74.4667 439.787 74.32V73.25C439.733 73.1033 439.653 72.98 439.547 72.88C439.44 72.7733 439.313 72.6933 439.167 72.64C439.02 72.58 438.857 72.55 438.677 72.55C438.477 72.55 438.29 72.6033 438.117 72.71C437.95 72.81 437.817 72.95 437.717 73.13C437.617 73.31 437.567 73.5167 437.567 73.75C437.567 73.9833 437.62 74.1933 437.727 74.38C437.833 74.5667 437.973 74.7133 438.147 74.82C438.327 74.9267 438.52 74.98 438.727 74.98ZM444.049 76.09C443.689 76.09 443.353 76.0267 443.039 75.9C442.733 75.7733 442.473 75.5967 442.259 75.37L442.839 74.6C443.053 74.7933 443.249 74.9333 443.429 75.02C443.616 75.1 443.783 75.14 443.929 75.14C444.043 75.14 444.143 75.13 444.229 75.11C444.323 75.0833 444.396 75.0467 444.449 75C444.503 74.9467 444.529 74.88 444.529 74.8C444.529 74.6867 444.483 74.5967 444.389 74.53C444.303 74.4633 444.189 74.41 444.049 74.37C443.909 74.3233 443.759 74.2767 443.599 74.23C443.199 74.1033 442.909 73.92 442.729 73.68C442.556 73.4333 442.469 73.1667 442.469 72.88C442.469 72.66 442.526 72.44 442.639 72.22C442.759 71.9933 442.946 71.8067 443.199 71.66C443.459 71.5067 443.793 71.43 444.199 71.43C444.566 71.43 444.876 71.4667 445.129 71.54C445.383 71.6133 445.623 71.7333 445.849 71.9L445.319 72.72C445.193 72.62 445.049 72.5367 444.889 72.47C444.736 72.3967 444.593 72.3567 444.459 72.35C444.339 72.3433 444.236 72.3567 444.149 72.39C444.069 72.4233 444.006 72.4667 443.959 72.52C443.913 72.5733 443.889 72.63 443.889 72.69C443.883 72.8167 443.929 72.9167 444.029 72.99C444.136 73.0633 444.269 73.12 444.429 73.16C444.589 73.2 444.746 73.2467 444.899 73.3C445.113 73.3667 445.296 73.4567 445.449 73.57C445.603 73.6833 445.719 73.82 445.799 73.98C445.886 74.1333 445.929 74.32 445.929 74.54C445.929 74.8067 445.859 75.06 445.719 75.3C445.586 75.5333 445.379 75.7233 445.099 75.87C444.826 76.0167 444.476 76.09 444.049 76.09ZM449.252 76.12C448.719 76.12 448.265 76.02 447.892 75.82C447.525 75.62 447.245 75.3433 447.052 74.99C446.859 74.6367 446.762 74.23 446.762 73.77C446.762 73.33 446.875 72.9333 447.102 72.58C447.329 72.2267 447.632 71.9467 448.012 71.74C448.392 71.5267 448.815 71.42 449.282 71.42C449.909 71.42 450.422 71.6033 450.822 71.97C451.229 72.33 451.492 72.8533 451.612 73.54L448.212 74.62L447.902 73.86L450.362 73.03L450.072 73.16C450.019 72.9867 449.922 72.8367 449.782 72.71C449.649 72.5767 449.445 72.51 449.172 72.51C448.965 72.51 448.782 72.56 448.622 72.66C448.469 72.7533 448.349 72.89 448.262 73.07C448.182 73.2433 448.142 73.45 448.142 73.69C448.142 73.9633 448.192 74.1933 448.292 74.38C448.392 74.56 448.529 74.6967 448.702 74.79C448.875 74.8833 449.069 74.93 449.282 74.93C449.435 74.93 449.582 74.9033 449.722 74.85C449.869 74.7967 450.012 74.7267 450.152 74.64L450.772 75.68C450.539 75.8133 450.285 75.92 450.012 76C449.745 76.08 449.492 76.12 449.252 76.12Z" fill="white"/>
<path d="M148.988 67.42C148.708 67.2667 148.422 67.14 148.128 67.04C147.842 66.94 147.572 66.89 147.318 66.89C147.005 66.89 146.758 66.9533 146.578 67.08C146.398 67.2067 146.308 67.3967 146.308 67.65C146.308 67.8233 146.375 67.98 146.508 68.12C146.648 68.2533 146.825 68.3733 147.038 68.48C147.258 68.5867 147.485 68.6833 147.718 68.77C147.932 68.85 148.142 68.9467 148.348 69.06C148.562 69.1667 148.752 69.3033 148.918 69.47C149.085 69.63 149.218 69.8333 149.318 70.08C149.418 70.32 149.468 70.6167 149.468 70.97C149.468 71.3433 149.372 71.69 149.178 72.01C148.985 72.33 148.702 72.59 148.328 72.79C147.955 72.9833 147.495 73.08 146.948 73.08C146.668 73.08 146.382 73.0533 146.088 73C145.802 72.94 145.518 72.8533 145.238 72.74C144.958 72.62 144.688 72.47 144.428 72.29L145.068 71.16C145.242 71.2867 145.428 71.4 145.628 71.5C145.835 71.5933 146.042 71.6667 146.248 71.72C146.455 71.7733 146.645 71.8 146.818 71.8C146.992 71.8 147.165 71.7767 147.338 71.73C147.518 71.6767 147.665 71.59 147.778 71.47C147.898 71.35 147.958 71.1833 147.958 70.97C147.958 70.8233 147.908 70.69 147.808 70.57C147.715 70.45 147.585 70.34 147.418 70.24C147.258 70.14 147.082 70.0533 146.888 69.98C146.662 69.8933 146.428 69.7933 146.188 69.68C145.948 69.5667 145.722 69.43 145.508 69.27C145.302 69.1033 145.132 68.9 144.998 68.66C144.872 68.4133 144.808 68.1133 144.808 67.76C144.808 67.3333 144.902 66.9633 145.088 66.65C145.282 66.3367 145.552 66.09 145.898 65.91C146.245 65.7233 146.645 65.62 147.098 65.6C147.692 65.6 148.172 65.67 148.538 65.81C148.912 65.95 149.245 66.1167 149.538 66.31L148.988 67.42ZM152.808 73.12C152.275 73.12 151.822 73.02 151.448 72.82C151.082 72.62 150.802 72.3433 150.608 71.99C150.415 71.6367 150.318 71.23 150.318 70.77C150.318 70.33 150.432 69.9333 150.658 69.58C150.885 69.2267 151.188 68.9467 151.568 68.74C151.948 68.5267 152.372 68.42 152.838 68.42C153.465 68.42 153.978 68.6033 154.378 68.97C154.785 69.33 155.048 69.8533 155.168 70.54L151.768 71.62L151.458 70.86L153.918 70.03L153.628 70.16C153.575 69.9867 153.478 69.8367 153.338 69.71C153.205 69.5767 153.002 69.51 152.728 69.51C152.522 69.51 152.338 69.56 152.178 69.66C152.025 69.7533 151.905 69.89 151.818 70.07C151.738 70.2433 151.698 70.45 151.698 70.69C151.698 70.9633 151.748 71.1933 151.848 71.38C151.948 71.56 152.085 71.6967 152.258 71.79C152.432 71.8833 152.625 71.93 152.838 71.93C152.992 71.93 153.138 71.9033 153.278 71.85C153.425 71.7967 153.568 71.7267 153.708 71.64L154.328 72.68C154.095 72.8133 153.842 72.92 153.568 73C153.302 73.08 153.048 73.12 152.808 73.12ZM157.446 68.63L157.576 69.83L157.546 69.65C157.672 69.39 157.846 69.17 158.066 68.99C158.286 68.8033 158.502 68.66 158.716 68.56C158.936 68.46 159.102 68.41 159.216 68.41L159.146 69.81C158.819 69.77 158.539 69.8233 158.306 69.97C158.072 70.1167 157.892 70.31 157.766 70.55C157.639 70.79 157.576 71.0367 157.576 71.29V73H156.186V68.63H157.446ZM162.287 73.09L159.667 68.63H161.327L162.817 71.65L161.957 71.62L163.247 68.63H164.807L162.327 73.09H162.287ZM167.633 73.12C167.099 73.12 166.646 73.02 166.273 72.82C165.906 72.62 165.626 72.3433 165.433 71.99C165.239 71.6367 165.143 71.23 165.143 70.77C165.143 70.33 165.256 69.9333 165.483 69.58C165.709 69.2267 166.013 68.9467 166.393 68.74C166.773 68.5267 167.196 68.42 167.663 68.42C168.289 68.42 168.803 68.6033 169.203 68.97C169.609 69.33 169.873 69.8533 169.993 70.54L166.593 71.62L166.283 70.86L168.743 70.03L168.453 70.16C168.399 69.9867 168.303 69.8367 168.163 69.71C168.029 69.5767 167.826 69.51 167.553 69.51C167.346 69.51 167.163 69.56 167.003 69.66C166.849 69.7533 166.729 69.89 166.643 70.07C166.563 70.2433 166.523 70.45 166.523 70.69C166.523 70.9633 166.573 71.1933 166.673 71.38C166.773 71.56 166.909 71.6967 167.083 71.79C167.256 71.8833 167.449 71.93 167.663 71.93C167.816 71.93 167.963 71.9033 168.103 71.85C168.249 71.7967 168.393 71.7267 168.533 71.64L169.153 72.68C168.919 72.8133 168.666 72.92 168.393 73C168.126 73.08 167.873 73.12 167.633 73.12ZM172.27 68.63L172.4 69.83L172.37 69.65C172.497 69.39 172.67 69.17 172.89 68.99C173.11 68.8033 173.327 68.66 173.54 68.56C173.76 68.46 173.927 68.41 174.04 68.41L173.97 69.81C173.643 69.77 173.363 69.8233 173.13 69.97C172.897 70.1167 172.717 70.31 172.59 70.55C172.463 70.79 172.4 71.0367 172.4 71.29V73H171.01V68.63H172.27Z" fill="white"/>
<path d="M427.75 21.1875C421.034 21.1875 413.896 22.9769 413.896 26.2917V46.7083C413.896 50.0231 421.034 51.8125 427.75 51.8125C434.465 51.8125 441.604 50.0231 441.604 46.7083V26.2917C441.604 22.9769 434.465 21.1875 427.75 21.1875ZM427.75 44.5208C420.069 44.5208 415.354 42.3975 415.354 40.875V38.8815C417.783 40.6621 422.879 41.6042 427.75 41.6042C432.621 41.6042 437.716 40.6621 440.146 38.8815V40.875C440.146 42.3975 435.431 44.5208 427.75 44.5208ZM427.75 38.6875C420.069 38.6875 415.354 36.5642 415.354 35.0417V33.0467C417.783 34.8288 422.879 35.7708 427.75 35.7708C432.621 35.7708 437.716 34.8288 440.146 33.0467V35.0417C440.146 36.5642 435.431 38.6875 427.75 38.6875ZM440.146 46.7083C440.146 48.2308 435.431 50.3542 427.75 50.3542C420.069 50.3542 415.354 48.2308 415.354 46.7083V44.7148C417.783 46.4954 422.879 47.4375 427.75 47.4375C432.621 47.4375 437.716 46.4954 440.146 44.7148V46.7083ZM427.75 32.8542C420.069 32.8542 415.354 30.7308 415.354 29.2083V26.2917C415.354 24.7692 420.069 22.6458 427.75 22.6458C435.431 22.6458 440.146 24.7692 440.146 26.2917V29.2083C440.146 30.7308 435.431 32.8542 427.75 32.8542Z" fill="white"/>
<path d="M45.25 38L69.3108 54L90.4102 38L112.25 47.3913" stroke="#D9D9D9" stroke-opacity="0.5"/>
<path d="M205.25 51.5238L217.962 41L241.003 58L263.25 41" stroke="#D9D9D9" stroke-opacity="0.5"/>
<path d="M327.25 32L357.107 49L382.25 38.9545" stroke="#D9D9D9" stroke-opacity="0.5"/>
<path d="M560.654 31C560.654 30.7348 560.765 30.4804 560.962 30.2929C561.159 30.1054 561.426 30 561.704 30H568.004C568.283 30 568.55 30.1054 568.747 30.2929C568.944 30.4804 569.054 30.7348 569.054 31C569.054 31.2652 568.944 31.5196 568.747 31.7071C568.55 31.8946 568.283 32 568.004 32H561.704C561.426 32 561.159 31.8946 560.962 31.7071C560.765 31.5196 560.654 31.2652 560.654 31ZM561.704 34C561.426 34 561.159 34.1054 560.962 34.2929C560.765 34.4804 560.654 34.7348 560.654 35C560.654 35.2652 560.765 35.5196 560.962 35.7071C561.159 35.8946 561.426 36 561.704 36H565.904C566.183 36 566.45 35.8946 566.647 35.7071C566.844 35.5196 566.954 35.2652 566.954 35C566.954 34.7348 566.844 34.4804 566.647 34.2929C566.45 34.1054 566.183 34 565.904 34H561.704ZM564.854 21C562.668 20.9993 560.52 21.5402 558.62 22.5697C556.72 23.5991 555.133 25.0817 554.017 26.8716C552.901 28.6615 552.292 30.6973 552.252 32.7788C552.212 34.8604 552.741 36.9161 553.787 38.744L552.296 43.724C552.244 43.8989 552.242 44.0841 552.292 44.2596C552.342 44.4352 552.441 44.5945 552.579 44.7204C552.717 44.8463 552.888 44.934 553.074 44.9741C553.261 45.0142 553.455 45.0052 553.636 44.948L558.546 43.39C560.219 44.3109 562.093 44.8529 564.021 44.974C565.95 45.0951 567.882 44.792 569.668 44.0883C571.453 43.3845 573.045 42.2989 574.32 40.9154C575.595 39.532 576.519 37.8878 577.02 36.11C577.52 34.3322 577.585 32.4685 577.209 30.6631C576.832 28.8576 576.025 27.1589 574.849 25.6982C573.673 24.2375 572.16 23.054 570.427 22.2393C568.694 21.4247 566.787 21.0006 564.854 21V21ZM554.354 33C554.355 30.7812 555.13 28.6255 556.558 26.8724C557.986 25.1192 559.985 23.8681 562.242 23.316C564.498 22.7639 566.883 22.9422 569.022 23.8228C571.16 24.7035 572.93 26.2364 574.053 28.1803C575.177 30.1242 575.589 32.3687 575.226 34.5603C574.863 36.752 573.745 38.7664 572.047 40.2864C570.35 41.8064 568.17 42.7456 565.851 42.9563C563.532 43.167 561.205 42.6371 559.237 41.45C559.105 41.3705 558.956 41.3199 558.802 41.3019C558.647 41.2839 558.49 41.299 558.342 41.346L554.86 42.452L555.931 38.89C555.97 38.7588 555.981 38.6214 555.962 38.4862C555.943 38.3511 555.896 38.221 555.822 38.104C554.858 36.5601 554.351 34.7963 554.354 33ZM573.834 48.894L568.79 46.494C569.714 46.248 570.602 45.92 571.442 45.518L574.304 46.882L583.754 42.382V41C583.754 40.4696 583.533 39.9609 583.139 39.5858C582.745 39.2107 582.211 39 581.654 39H578.139C578.46 38.36 578.729 37.69 578.945 37H581.654C582.768 37 583.836 37.4214 584.624 38.1716C585.412 38.9217 585.854 39.9391 585.854 41V51C585.854 52.0609 585.412 53.0783 584.624 53.8284C583.836 54.5786 582.768 55 581.654 55H566.954C565.84 55 564.772 54.5786 563.984 53.8284C563.197 53.0783 562.754 52.0609 562.754 51V46.86C563.441 46.952 564.14 47 564.854 47V51C564.854 51.5304 565.075 52.0391 565.469 52.4142C565.863 52.7893 566.397 53 566.954 53H581.654C582.211 53 582.745 52.7893 583.139 52.4142C583.533 52.0391 583.754 51.5304 583.754 51V44.618L574.775 48.894C574.629 48.9637 574.468 49 574.304 49C574.141 49 573.98 48.9637 573.834 48.894V48.894Z" fill="#B80F0A"/>
<path d="M476.25 30L500.901 45L522.37 36.6667L542.25 45" stroke="#D9D9D9" stroke-opacity="0.5"/>
<circle cx="294.75" cy="29.5" r="26.5" fill="white"/>
<path d="M319.251 27.1624C313.621 -5.45729 271.029 0.855075 270.269 27.1624C272.727 28.438 274.271 29.2129 274.271 29.2129C274.271 29.2129 272.968 29.9931 270.251 31.7292C275.159 63.7081 317.018 59.064 319.243 31.6924C316.581 30.0608 315.13 29.1999 315.13 29.1999C315.13 29.1999 316.375 28.607 319.251 27.1624ZM298.295 38.5518L294.299 31.6834L290.233 38.5518L287.165 38.3415L292.944 28.6001L287.736 20.1901L290.875 19.9096L294.584 26.1471L298.294 20.1901L301.219 20.2602L296.368 28.5302L301.718 38.4819L298.295 38.5518Z" fill="#B80F0A"/>
<path d="M317.264 25.9009C309.631 -3.08444 274.651 4.75726 272.255 25.9009C277.108 28.6319 278.21 29.2738 278.21 29.2738C278.21 29.2738 276.334 30.4731 272.238 33.0745C277.445 60.9397 315.188 55.5847 317.256 33.0406C313.447 30.6531 311.2 29.2618 311.2 29.2618C311.2 29.2618 316.336 26.3911 317.264 25.9009ZM298.294 38.5891L294.299 31.7224L290.233 38.5891L287.166 38.3789L292.944 28.6392L287.737 20.231L290.875 19.9505L294.584 26.1867L298.294 20.2309L301.218 20.3009L296.368 28.5689L301.717 38.5187L298.294 38.5891Z" fill="#B80F0A"/>
</svg>
