<svg width="466" height="86" viewBox="0 0 466 86" fill="none" xmlns="http://www.w3.org/2000/svg">
<path d="M167.042 27.75H169.959V30.6667H167.042V27.75ZM162.667 27.75H165.584V30.6667H162.667V27.75ZM167.042 42.3333H169.959V45.25H167.042V42.3333ZM162.667 42.3333H165.584V45.25H162.667V42.3333Z" fill="white"/>
<path d="M276.205 68.64C276.971 68.64 277.581 68.7967 278.035 69.11C278.488 69.4167 278.715 69.8767 278.715 70.49C278.715 70.9433 278.601 71.3233 278.375 71.63C278.155 71.93 277.851 72.1567 277.465 72.31C277.085 72.4567 276.648 72.53 276.155 72.53L275.925 71.75C276.531 71.75 277.068 71.8333 277.535 72C278.008 72.1667 278.381 72.4067 278.655 72.72C278.928 73.0267 279.065 73.3967 279.065 73.83C279.065 74.23 278.991 74.57 278.845 74.85C278.705 75.1233 278.511 75.3467 278.265 75.52C278.025 75.6867 277.751 75.81 277.445 75.89C277.138 75.9633 276.821 76 276.495 76H274.045V68.64H276.205ZM276.375 71.65C276.661 71.65 276.871 71.5633 277.005 71.39C277.145 71.2167 277.215 71.02 277.215 70.8C277.215 70.5467 277.128 70.3567 276.955 70.23C276.788 70.1033 276.561 70.04 276.275 70.04H275.495V71.65H276.375ZM276.425 74.65C276.638 74.65 276.831 74.6233 277.005 74.57C277.178 74.51 277.315 74.42 277.415 74.3C277.515 74.1733 277.565 74.0167 277.565 73.83C277.565 73.6167 277.505 73.4567 277.385 73.35C277.265 73.2367 277.108 73.16 276.915 73.12C276.728 73.0733 276.531 73.05 276.325 73.05H275.495V74.65H276.425ZM280.289 68.11H281.689V76H280.289V68.11ZM282.791 73.76C282.791 73.3133 282.894 72.9133 283.101 72.56C283.314 72.2067 283.611 71.93 283.991 71.73C284.371 71.5233 284.808 71.42 285.301 71.42C285.801 71.42 286.234 71.5233 286.601 71.73C286.968 71.93 287.248 72.2067 287.441 72.56C287.641 72.9133 287.741 73.3133 287.741 73.76C287.741 74.2067 287.641 74.61 287.441 74.97C287.248 75.3233 286.968 75.6033 286.601 75.81C286.234 76.0167 285.794 76.12 285.281 76.12C284.801 76.12 284.371 76.0267 283.991 75.84C283.618 75.6533 283.324 75.3833 283.111 75.03C282.898 74.6767 282.791 74.2533 282.791 73.76ZM284.201 73.77C284.201 73.9967 284.248 74.2033 284.341 74.39C284.434 74.57 284.561 74.7133 284.721 74.82C284.881 74.9267 285.061 74.98 285.261 74.98C285.481 74.98 285.671 74.9267 285.831 74.82C285.991 74.7133 286.114 74.57 286.201 74.39C286.288 74.2033 286.331 73.9967 286.331 73.77C286.331 73.5367 286.288 73.33 286.201 73.15C286.114 72.97 285.991 72.8267 285.831 72.72C285.671 72.6133 285.481 72.56 285.261 72.56C285.061 72.56 284.881 72.6133 284.721 72.72C284.561 72.8267 284.434 72.97 284.341 73.15C284.248 73.33 284.201 73.5367 284.201 73.77ZM292.554 75.61C292.361 75.7633 292.117 75.8867 291.824 75.98C291.537 76.0733 291.254 76.12 290.974 76.12C290.474 76.12 290.037 76.03 289.664 75.85C289.297 75.6633 289.011 75.4 288.804 75.06C288.604 74.7133 288.504 74.2967 288.504 73.81C288.504 73.3233 288.614 72.91 288.834 72.57C289.054 72.2233 289.341 71.96 289.694 71.78C290.054 71.6 290.431 71.51 290.824 71.51C291.217 71.51 291.557 71.5633 291.844 71.67C292.137 71.7767 292.387 71.9167 292.594 72.09L291.914 72.99C291.821 72.9167 291.691 72.8433 291.524 72.77C291.364 72.69 291.174 72.65 290.954 72.65C290.761 72.65 290.584 72.7 290.424 72.8C290.264 72.9 290.137 73.0367 290.044 73.21C289.951 73.3833 289.904 73.5833 289.904 73.81C289.904 74.0233 289.954 74.22 290.054 74.4C290.154 74.58 290.291 74.7233 290.464 74.83C290.644 74.93 290.854 74.98 291.094 74.98C291.247 74.98 291.387 74.96 291.514 74.92C291.647 74.8733 291.761 74.81 291.854 74.73L292.554 75.61ZM293.629 76V68.11H295.029V76H293.629ZM296.139 73.03L298.119 76H296.489L295.219 73.83L296.139 73.03ZM294.609 74.79L294.469 73.46L297.109 71.52L297.959 72.27L294.609 74.79ZM302.691 75.61C302.497 75.7633 302.254 75.8867 301.961 75.98C301.674 76.0733 301.391 76.12 301.111 76.12C300.611 76.12 300.174 76.03 299.801 75.85C299.434 75.6633 299.147 75.4 298.941 75.06C298.741 74.7133 298.641 74.2967 298.641 73.81C298.641 73.3233 298.751 72.91 298.971 72.57C299.191 72.2233 299.477 71.96 299.831 71.78C300.191 71.6 300.567 71.51 300.961 71.51C301.354 71.51 301.694 71.5633 301.981 71.67C302.274 71.7767 302.524 71.9167 302.731 72.09L302.051 72.99C301.957 72.9167 301.827 72.8433 301.661 72.77C301.501 72.69 301.311 72.65 301.091 72.65C300.897 72.65 300.721 72.7 300.561 72.8C300.401 72.9 300.274 73.0367 300.181 73.21C300.087 73.3833 300.041 73.5833 300.041 73.81C300.041 74.0233 300.091 74.22 300.191 74.4C300.291 74.58 300.427 74.7233 300.601 74.83C300.781 74.93 300.991 74.98 301.231 74.98C301.384 74.98 301.524 74.96 301.651 74.92C301.784 74.8733 301.897 74.81 301.991 74.73L302.691 75.61ZM303.766 76V68.11H305.136V72.51L305.126 72.34C305.279 72.0667 305.496 71.8467 305.776 71.68C306.056 71.5067 306.399 71.42 306.806 71.42C307.219 71.42 307.563 71.5433 307.836 71.79C308.116 72.03 308.259 72.3433 308.266 72.73V76H306.866V73.25C306.859 73.0567 306.806 72.9033 306.706 72.79C306.613 72.67 306.453 72.61 306.226 72.61C306.013 72.61 305.826 72.68 305.666 72.82C305.506 72.96 305.383 73.15 305.296 73.39C305.209 73.63 305.166 73.9067 305.166 74.22V76H303.766ZM311.543 76.12C311.137 76.12 310.767 76.04 310.433 75.88C310.107 75.7133 309.847 75.46 309.653 75.12C309.46 74.78 309.363 74.3467 309.363 73.82C309.363 73.3267 309.463 72.9 309.663 72.54C309.863 72.18 310.127 71.9033 310.453 71.71C310.78 71.51 311.127 71.41 311.493 71.41C311.927 71.41 312.253 71.4833 312.473 71.63C312.7 71.77 312.887 71.9267 313.033 72.1L312.973 72.27L313.103 71.63H314.403V76H313.003V75.05L313.113 75.35C313.1 75.35 313.06 75.39 312.993 75.47C312.927 75.5433 312.827 75.6333 312.693 75.74C312.567 75.84 312.407 75.9267 312.213 76C312.027 76.08 311.803 76.12 311.543 76.12ZM311.943 74.98C312.11 74.98 312.26 74.9567 312.393 74.91C312.527 74.8567 312.643 74.7833 312.743 74.69C312.843 74.59 312.93 74.4667 313.003 74.32V73.25C312.95 73.1033 312.87 72.98 312.763 72.88C312.657 72.7733 312.53 72.6933 312.383 72.64C312.237 72.58 312.073 72.55 311.893 72.55C311.693 72.55 311.507 72.6033 311.333 72.71C311.167 72.81 311.033 72.95 310.933 73.13C310.833 73.31 310.783 73.5167 310.783 73.75C310.783 73.9833 310.837 74.1933 310.943 74.38C311.05 74.5667 311.19 74.7133 311.363 74.82C311.543 74.9267 311.737 74.98 311.943 74.98ZM315.846 71.63H317.246V76H315.846V71.63ZM315.816 70.08C315.816 69.8733 315.896 69.7033 316.056 69.57C316.223 69.4367 316.399 69.37 316.586 69.37C316.773 69.37 316.943 69.4367 317.096 69.57C317.256 69.7033 317.336 69.8733 317.336 70.08C317.336 70.2867 317.256 70.4567 317.096 70.59C316.943 70.7167 316.773 70.78 316.586 70.78C316.399 70.78 316.223 70.7167 316.056 70.59C315.896 70.4567 315.816 70.2867 315.816 70.08ZM319.958 71.63L320.068 72.41L320.048 72.34C320.201 72.0667 320.418 71.8467 320.698 71.68C320.978 71.5067 321.321 71.42 321.728 71.42C322.141 71.42 322.484 71.5433 322.758 71.79C323.038 72.03 323.181 72.3433 323.188 72.73V76H321.788V73.25C321.781 73.0567 321.728 72.9033 321.628 72.79C321.534 72.67 321.374 72.61 321.148 72.61C320.934 72.61 320.748 72.68 320.588 72.82C320.428 72.96 320.304 73.15 320.218 73.39C320.131 73.63 320.088 73.9067 320.088 74.22V76H318.688V71.63H319.958Z" fill="#B80F0A"/>
<rect x="125.25" width="71" height="86" rx="5" fill="#B80F0A"/>
<rect x="394.25" width="71" height="86" rx="5" fill="#B80F0A"/>
<path d="M16 20.5H32.25V23H16V20.5ZM16 43H32.25V45.5H16V43ZM2.25 31.75H18.5V34.25H2.25V31.75ZM6 26.75C5.0111 26.75 4.0444 26.4568 3.22215 25.9074C2.39991 25.3579 1.75904 24.5771 1.3806 23.6634C1.00217 22.7498 0.90315 21.7445 1.09608 20.7746C1.289 19.8046 1.76521 18.9137 2.46447 18.2145C3.16373 17.5152 4.05465 17.039 5.02455 16.8461C5.99446 16.6531 6.99979 16.7522 7.91342 17.1306C8.82705 17.509 9.60794 18.1499 10.1574 18.9722C10.7068 19.7944 11 20.7611 11 21.75C11 23.0761 10.4732 24.3479 9.53554 25.2855C8.59785 26.2232 7.32608 26.75 6 26.75V26.75ZM6 19.25C5.50555 19.25 5.0222 19.3966 4.61108 19.6713C4.19995 19.946 3.87952 20.3365 3.6903 20.7933C3.50108 21.2501 3.45158 21.7528 3.54804 22.2377C3.6445 22.7227 3.8826 23.1681 4.23224 23.5178C4.58187 23.8674 5.02732 24.1055 5.51228 24.202C5.99723 24.2984 6.4999 24.2489 6.95671 24.0597C7.41353 23.8705 7.80397 23.5501 8.07868 23.1389C8.35338 22.7278 8.5 22.2445 8.5 21.75C8.5 21.087 8.23661 20.4511 7.76777 19.9822C7.29893 19.5134 6.66304 19.25 6 19.25V19.25ZM6 49.25C5.0111 49.25 4.0444 48.9568 3.22215 48.4074C2.39991 47.8579 1.75904 47.077 1.3806 46.1634C1.00217 45.2498 0.90315 44.2445 1.09608 43.2746C1.289 42.3046 1.76521 41.4137 2.46447 40.7145C3.16373 40.0152 4.05465 39.539 5.02455 39.3461C5.99446 39.1531 6.99979 39.2522 7.91342 39.6306C8.82705 40.009 9.60794 40.6499 10.1574 41.4722C10.7068 42.2944 11 43.2611 11 44.25C11 45.5761 10.4732 46.8479 9.53554 47.7855C8.59785 48.7232 7.32608 49.25 6 49.25V49.25ZM6 41.75C5.50555 41.75 5.0222 41.8966 4.61108 42.1713C4.19995 42.446 3.87952 42.8365 3.6903 43.2933C3.50108 43.7501 3.45158 44.2528 3.54804 44.7377C3.6445 45.2227 3.8826 45.6681 4.23224 46.0178C4.58187 46.3674 5.02732 46.6055 5.51228 46.702C5.99723 46.7984 6.4999 46.7489 6.95671 46.5597C7.41353 46.3705 7.80397 46.0501 8.07868 45.6389C8.35338 45.2278 8.5 44.7445 8.5 44.25C8.5 43.587 8.23661 42.9511 7.76777 42.4822C7.29893 42.0134 6.66304 41.75 6 41.75ZM28.5 38C27.5111 38 26.5444 37.7068 25.7222 37.1574C24.8999 36.6079 24.259 35.827 23.8806 34.9134C23.5022 33.9998 23.4031 32.9945 23.5961 32.0246C23.789 31.0546 24.2652 30.1637 24.9645 29.4645C25.6637 28.7652 26.5546 28.289 27.5246 28.0961C28.4945 27.9031 29.4998 28.0022 30.4134 28.3806C31.327 28.759 32.1079 29.3999 32.6574 30.2222C33.2068 31.0444 33.5 32.0111 33.5 33C33.5 34.3261 32.9732 35.5979 32.0355 36.5355C31.0979 37.4732 29.8261 38 28.5 38ZM28.5 30.5C28.0055 30.5 27.5222 30.6466 27.1111 30.9213C26.7 31.196 26.3795 31.5865 26.1903 32.0433C26.0011 32.5001 25.9516 33.0028 26.048 33.4877C26.1445 33.9727 26.3826 34.4181 26.7322 34.7678C27.0819 35.1174 27.5273 35.3555 28.0123 35.452C28.4972 35.5484 28.9999 35.4989 29.4567 35.3097C29.9135 35.1205 30.304 34.8001 30.5787 34.3889C30.8534 33.9778 31 33.4945 31 33C31 32.337 30.7366 31.7011 30.2678 31.2322C29.7989 30.7634 29.163 30.5 28.5 30.5Z" fill="#B80F0A"/>
<path d="M171.417 23.375H148.084C147.31 23.375 146.568 23.6823 146.021 24.2293C145.474 24.7763 145.167 25.5181 145.167 26.2917V32.125C145.167 32.8985 145.474 33.6404 146.021 34.1874C146.568 34.7344 147.31 35.0417 148.084 35.0417H171.417C172.191 35.0417 172.932 34.7344 173.479 34.1874C174.026 33.6404 174.334 32.8985 174.334 32.125V26.2917C174.334 25.5181 174.026 24.7763 173.479 24.2293C172.932 23.6823 172.191 23.375 171.417 23.375ZM148.084 32.125V26.2917H171.417V32.125H148.084ZM171.417 37.9583H148.084C147.31 37.9583 146.568 38.2656 146.021 38.8126C145.474 39.3596 145.167 40.1015 145.167 40.875V46.7083C145.167 47.4819 145.474 48.2237 146.021 48.7707C146.568 49.3177 147.31 49.625 148.084 49.625H171.417C172.191 49.625 172.932 49.3177 173.479 48.7707C174.026 48.2237 174.334 47.4819 174.334 46.7083V40.875C174.334 40.1015 174.026 39.3596 173.479 38.8126C172.932 38.2656 172.191 37.9583 171.417 37.9583ZM148.084 46.7083V40.875H171.417V46.7083H148.084Z" fill="white"/>
<path d="M407.541 76V68.64H409.741C410.481 68.64 411.111 68.75 411.631 68.97C412.151 69.19 412.567 69.4833 412.881 69.85C413.201 70.2167 413.434 70.6267 413.581 71.08C413.727 71.5333 413.801 71.99 413.801 72.45C413.801 72.9967 413.701 73.49 413.501 73.93C413.307 74.3633 413.041 74.7367 412.701 75.05C412.361 75.3567 411.967 75.5933 411.521 75.76C411.074 75.92 410.601 76 410.101 76H407.541ZM408.991 74.6H409.851C410.217 74.6 410.551 74.5533 410.851 74.46C411.151 74.36 411.407 74.2167 411.621 74.03C411.841 73.8433 412.007 73.61 412.121 73.33C412.241 73.0433 412.301 72.7167 412.301 72.35C412.301 71.87 412.221 71.48 412.061 71.18C411.907 70.8733 411.714 70.6367 411.481 70.47C411.254 70.3033 411.021 70.19 410.781 70.13C410.541 70.0633 410.337 70.03 410.171 70.03H408.991V74.6ZM416.866 76.12C416.459 76.12 416.089 76.04 415.756 75.88C415.429 75.7133 415.169 75.46 414.976 75.12C414.782 74.78 414.686 74.3467 414.686 73.82C414.686 73.3267 414.786 72.9 414.986 72.54C415.186 72.18 415.449 71.9033 415.776 71.71C416.102 71.51 416.449 71.41 416.816 71.41C417.249 71.41 417.576 71.4833 417.796 71.63C418.022 71.77 418.209 71.9267 418.356 72.1L418.296 72.27L418.426 71.63H419.726V76H418.326V75.05L418.436 75.35C418.422 75.35 418.382 75.39 418.316 75.47C418.249 75.5433 418.149 75.6333 418.016 75.74C417.889 75.84 417.729 75.9267 417.536 76C417.349 76.08 417.126 76.12 416.866 76.12ZM417.266 74.98C417.432 74.98 417.582 74.9567 417.716 74.91C417.849 74.8567 417.966 74.7833 418.066 74.69C418.166 74.59 418.252 74.4667 418.326 74.32V73.25C418.272 73.1033 418.192 72.98 418.086 72.88C417.979 72.7733 417.852 72.6933 417.706 72.64C417.559 72.58 417.396 72.55 417.216 72.55C417.016 72.55 416.829 72.6033 416.656 72.71C416.489 72.81 416.356 72.95 416.256 73.13C416.156 73.31 416.106 73.5167 416.106 73.75C416.106 73.9833 416.159 74.1933 416.266 74.38C416.372 74.5667 416.512 74.7133 416.686 74.82C416.866 74.9267 417.059 74.98 417.266 74.98ZM421.578 69.71H422.978V71.61H424.038V72.7H422.978V76H421.578V72.7H420.898V71.61H421.578V69.71ZM426.944 76.12C426.537 76.12 426.167 76.04 425.834 75.88C425.507 75.7133 425.247 75.46 425.054 75.12C424.86 74.78 424.764 74.3467 424.764 73.82C424.764 73.3267 424.864 72.9 425.064 72.54C425.264 72.18 425.527 71.9033 425.854 71.71C426.18 71.51 426.527 71.41 426.894 71.41C427.327 71.41 427.654 71.4833 427.874 71.63C428.1 71.77 428.287 71.9267 428.434 72.1L428.374 72.27L428.504 71.63H429.804V76H428.404V75.05L428.514 75.35C428.5 75.35 428.46 75.39 428.394 75.47C428.327 75.5433 428.227 75.6333 428.094 75.74C427.967 75.84 427.807 75.9267 427.614 76C427.427 76.08 427.204 76.12 426.944 76.12ZM427.344 74.98C427.51 74.98 427.66 74.9567 427.794 74.91C427.927 74.8567 428.044 74.7833 428.144 74.69C428.244 74.59 428.33 74.4667 428.404 74.32V73.25C428.35 73.1033 428.27 72.98 428.164 72.88C428.057 72.7733 427.93 72.6933 427.784 72.64C427.637 72.58 427.474 72.55 427.294 72.55C427.094 72.55 426.907 72.6033 426.734 72.71C426.567 72.81 426.434 72.95 426.334 73.13C426.234 73.31 426.184 73.5167 426.184 73.75C426.184 73.9833 426.237 74.1933 426.344 74.38C426.45 74.5667 426.59 74.7133 426.764 74.82C426.944 74.9267 427.137 74.98 427.344 74.98ZM434.116 76.12C433.75 76.12 433.44 76.06 433.186 75.94C432.94 75.8133 432.723 75.65 432.536 75.45L432.646 75.15V76H431.246V68.11H432.636V72.38V71.93C432.81 71.7833 433.04 71.66 433.326 71.56C433.613 71.46 433.94 71.41 434.306 71.41C434.686 71.41 435.033 71.5 435.346 71.68C435.66 71.86 435.91 72.1233 436.096 72.47C436.29 72.81 436.386 73.2267 436.386 73.72C436.386 74.2133 436.28 74.64 436.066 75C435.86 75.36 435.583 75.6367 435.236 75.83C434.89 76.0233 434.516 76.12 434.116 76.12ZM433.806 74.94C434.013 74.94 434.203 74.8867 434.376 74.78C434.556 74.6733 434.7 74.5267 434.806 74.34C434.913 74.1533 434.966 73.9433 434.966 73.71C434.966 73.4767 434.913 73.27 434.806 73.09C434.7 72.91 434.556 72.77 434.376 72.67C434.203 72.5633 434.013 72.51 433.806 72.51C433.626 72.51 433.456 72.54 433.296 72.6C433.143 72.6533 433.01 72.7333 432.896 72.84C432.79 72.94 432.706 73.0633 432.646 73.21V74.28C432.726 74.4267 432.82 74.55 432.926 74.65C433.04 74.7433 433.17 74.8167 433.316 74.87C433.463 74.9167 433.626 74.94 433.806 74.94ZM439.327 76.12C438.92 76.12 438.55 76.04 438.217 75.88C437.89 75.7133 437.63 75.46 437.437 75.12C437.243 74.78 437.147 74.3467 437.147 73.82C437.147 73.3267 437.247 72.9 437.447 72.54C437.647 72.18 437.91 71.9033 438.237 71.71C438.563 71.51 438.91 71.41 439.277 71.41C439.71 71.41 440.037 71.4833 440.257 71.63C440.483 71.77 440.67 71.9267 440.817 72.1L440.757 72.27L440.887 71.63H442.187V76H440.787V75.05L440.897 75.35C440.883 75.35 440.843 75.39 440.777 75.47C440.71 75.5433 440.61 75.6333 440.477 75.74C440.35 75.84 440.19 75.9267 439.997 76C439.81 76.08 439.587 76.12 439.327 76.12ZM439.727 74.98C439.893 74.98 440.043 74.9567 440.177 74.91C440.31 74.8567 440.427 74.7833 440.527 74.69C440.627 74.59 440.713 74.4667 440.787 74.32V73.25C440.733 73.1033 440.653 72.98 440.547 72.88C440.44 72.7733 440.313 72.6933 440.167 72.64C440.02 72.58 439.857 72.55 439.677 72.55C439.477 72.55 439.29 72.6033 439.117 72.71C438.95 72.81 438.817 72.95 438.717 73.13C438.617 73.31 438.567 73.5167 438.567 73.75C438.567 73.9833 438.62 74.1933 438.727 74.38C438.833 74.5667 438.973 74.7133 439.147 74.82C439.327 74.9267 439.52 74.98 439.727 74.98ZM445.049 76.09C444.689 76.09 444.353 76.0267 444.039 75.9C443.733 75.7733 443.473 75.5967 443.259 75.37L443.839 74.6C444.053 74.7933 444.249 74.9333 444.429 75.02C444.616 75.1 444.783 75.14 444.929 75.14C445.043 75.14 445.143 75.13 445.229 75.11C445.323 75.0833 445.396 75.0467 445.449 75C445.503 74.9467 445.529 74.88 445.529 74.8C445.529 74.6867 445.483 74.5967 445.389 74.53C445.303 74.4633 445.189 74.41 445.049 74.37C444.909 74.3233 444.759 74.2767 444.599 74.23C444.199 74.1033 443.909 73.92 443.729 73.68C443.556 73.4333 443.469 73.1667 443.469 72.88C443.469 72.66 443.526 72.44 443.639 72.22C443.759 71.9933 443.946 71.8067 444.199 71.66C444.459 71.5067 444.793 71.43 445.199 71.43C445.566 71.43 445.876 71.4667 446.129 71.54C446.383 71.6133 446.623 71.7333 446.849 71.9L446.319 72.72C446.193 72.62 446.049 72.5367 445.889 72.47C445.736 72.3967 445.593 72.3567 445.459 72.35C445.339 72.3433 445.236 72.3567 445.149 72.39C445.069 72.4233 445.006 72.4667 444.959 72.52C444.913 72.5733 444.889 72.63 444.889 72.69C444.883 72.8167 444.929 72.9167 445.029 72.99C445.136 73.0633 445.269 73.12 445.429 73.16C445.589 73.2 445.746 73.2467 445.899 73.3C446.113 73.3667 446.296 73.4567 446.449 73.57C446.603 73.6833 446.719 73.82 446.799 73.98C446.886 74.1333 446.929 74.32 446.929 74.54C446.929 74.8067 446.859 75.06 446.719 75.3C446.586 75.5333 446.379 75.7233 446.099 75.87C445.826 76.0167 445.476 76.09 445.049 76.09ZM450.252 76.12C449.719 76.12 449.265 76.02 448.892 75.82C448.525 75.62 448.245 75.3433 448.052 74.99C447.859 74.6367 447.762 74.23 447.762 73.77C447.762 73.33 447.875 72.9333 448.102 72.58C448.329 72.2267 448.632 71.9467 449.012 71.74C449.392 71.5267 449.815 71.42 450.282 71.42C450.909 71.42 451.422 71.6033 451.822 71.97C452.229 72.33 452.492 72.8533 452.612 73.54L449.212 74.62L448.902 73.86L451.362 73.03L451.072 73.16C451.019 72.9867 450.922 72.8367 450.782 72.71C450.649 72.5767 450.445 72.51 450.172 72.51C449.965 72.51 449.782 72.56 449.622 72.66C449.469 72.7533 449.349 72.89 449.262 73.07C449.182 73.2433 449.142 73.45 449.142 73.69C449.142 73.9633 449.192 74.1933 449.292 74.38C449.392 74.56 449.529 74.6967 449.702 74.79C449.875 74.8833 450.069 74.93 450.282 74.93C450.435 74.93 450.582 74.9033 450.722 74.85C450.869 74.7967 451.012 74.7267 451.152 74.64L451.772 75.68C451.539 75.8133 451.285 75.92 451.012 76C450.745 76.08 450.492 76.12 450.252 76.12Z" fill="white"/>
<path d="M149.988 67.42C149.708 67.2667 149.422 67.14 149.128 67.04C148.842 66.94 148.572 66.89 148.318 66.89C148.005 66.89 147.758 66.9533 147.578 67.08C147.398 67.2067 147.308 67.3967 147.308 67.65C147.308 67.8233 147.375 67.98 147.508 68.12C147.648 68.2533 147.825 68.3733 148.038 68.48C148.258 68.5867 148.485 68.6833 148.718 68.77C148.932 68.85 149.142 68.9467 149.348 69.06C149.562 69.1667 149.752 69.3033 149.918 69.47C150.085 69.63 150.218 69.8333 150.318 70.08C150.418 70.32 150.468 70.6167 150.468 70.97C150.468 71.3433 150.372 71.69 150.178 72.01C149.985 72.33 149.702 72.59 149.328 72.79C148.955 72.9833 148.495 73.08 147.948 73.08C147.668 73.08 147.382 73.0533 147.088 73C146.802 72.94 146.518 72.8533 146.238 72.74C145.958 72.62 145.688 72.47 145.428 72.29L146.068 71.16C146.242 71.2867 146.428 71.4 146.628 71.5C146.835 71.5933 147.042 71.6667 147.248 71.72C147.455 71.7733 147.645 71.8 147.818 71.8C147.992 71.8 148.165 71.7767 148.338 71.73C148.518 71.6767 148.665 71.59 148.778 71.47C148.898 71.35 148.958 71.1833 148.958 70.97C148.958 70.8233 148.908 70.69 148.808 70.57C148.715 70.45 148.585 70.34 148.418 70.24C148.258 70.14 148.082 70.0533 147.888 69.98C147.662 69.8933 147.428 69.7933 147.188 69.68C146.948 69.5667 146.722 69.43 146.508 69.27C146.302 69.1033 146.132 68.9 145.998 68.66C145.872 68.4133 145.808 68.1133 145.808 67.76C145.808 67.3333 145.902 66.9633 146.088 66.65C146.282 66.3367 146.552 66.09 146.898 65.91C147.245 65.7233 147.645 65.62 148.098 65.6C148.692 65.6 149.172 65.67 149.538 65.81C149.912 65.95 150.245 66.1167 150.538 66.31L149.988 67.42ZM153.808 73.12C153.275 73.12 152.822 73.02 152.448 72.82C152.082 72.62 151.802 72.3433 151.608 71.99C151.415 71.6367 151.318 71.23 151.318 70.77C151.318 70.33 151.432 69.9333 151.658 69.58C151.885 69.2267 152.188 68.9467 152.568 68.74C152.948 68.5267 153.372 68.42 153.838 68.42C154.465 68.42 154.978 68.6033 155.378 68.97C155.785 69.33 156.048 69.8533 156.168 70.54L152.768 71.62L152.458 70.86L154.918 70.03L154.628 70.16C154.575 69.9867 154.478 69.8367 154.338 69.71C154.205 69.5767 154.002 69.51 153.728 69.51C153.522 69.51 153.338 69.56 153.178 69.66C153.025 69.7533 152.905 69.89 152.818 70.07C152.738 70.2433 152.698 70.45 152.698 70.69C152.698 70.9633 152.748 71.1933 152.848 71.38C152.948 71.56 153.085 71.6967 153.258 71.79C153.432 71.8833 153.625 71.93 153.838 71.93C153.992 71.93 154.138 71.9033 154.278 71.85C154.425 71.7967 154.568 71.7267 154.708 71.64L155.328 72.68C155.095 72.8133 154.842 72.92 154.568 73C154.302 73.08 154.048 73.12 153.808 73.12ZM158.446 68.63L158.576 69.83L158.546 69.65C158.672 69.39 158.846 69.17 159.066 68.99C159.286 68.8033 159.502 68.66 159.716 68.56C159.936 68.46 160.102 68.41 160.216 68.41L160.146 69.81C159.819 69.77 159.539 69.8233 159.306 69.97C159.072 70.1167 158.892 70.31 158.766 70.55C158.639 70.79 158.576 71.0367 158.576 71.29V73H157.186V68.63H158.446ZM163.287 73.09L160.667 68.63H162.327L163.817 71.65L162.957 71.62L164.247 68.63H165.807L163.327 73.09H163.287ZM168.633 73.12C168.099 73.12 167.646 73.02 167.273 72.82C166.906 72.62 166.626 72.3433 166.433 71.99C166.239 71.6367 166.143 71.23 166.143 70.77C166.143 70.33 166.256 69.9333 166.483 69.58C166.709 69.2267 167.013 68.9467 167.393 68.74C167.773 68.5267 168.196 68.42 168.663 68.42C169.289 68.42 169.803 68.6033 170.203 68.97C170.609 69.33 170.873 69.8533 170.993 70.54L167.593 71.62L167.283 70.86L169.743 70.03L169.453 70.16C169.399 69.9867 169.303 69.8367 169.163 69.71C169.029 69.5767 168.826 69.51 168.553 69.51C168.346 69.51 168.163 69.56 168.003 69.66C167.849 69.7533 167.729 69.89 167.643 70.07C167.563 70.2433 167.523 70.45 167.523 70.69C167.523 70.9633 167.573 71.1933 167.673 71.38C167.773 71.56 167.909 71.6967 168.083 71.79C168.256 71.8833 168.449 71.93 168.663 71.93C168.816 71.93 168.963 71.9033 169.103 71.85C169.249 71.7967 169.393 71.7267 169.533 71.64L170.153 72.68C169.919 72.8133 169.666 72.92 169.393 73C169.126 73.08 168.873 73.12 168.633 73.12ZM173.27 68.63L173.4 69.83L173.37 69.65C173.497 69.39 173.67 69.17 173.89 68.99C174.11 68.8033 174.327 68.66 174.54 68.56C174.76 68.46 174.927 68.41 175.04 68.41L174.97 69.81C174.643 69.77 174.363 69.8233 174.13 69.97C173.897 70.1167 173.717 70.31 173.59 70.55C173.463 70.79 173.4 71.0367 173.4 71.29V73H172.01V68.63H173.27Z" fill="white"/>
<path d="M428.75 21.1875C422.034 21.1875 414.896 22.9769 414.896 26.2917V46.7083C414.896 50.0231 422.034 51.8125 428.75 51.8125C435.465 51.8125 442.604 50.0231 442.604 46.7083V26.2917C442.604 22.9769 435.465 21.1875 428.75 21.1875ZM428.75 44.5208C421.069 44.5208 416.354 42.3975 416.354 40.875V38.8815C418.783 40.6621 423.879 41.6042 428.75 41.6042C433.621 41.6042 438.716 40.6621 441.146 38.8815V40.875C441.146 42.3975 436.431 44.5208 428.75 44.5208ZM428.75 38.6875C421.069 38.6875 416.354 36.5642 416.354 35.0417V33.0467C418.783 34.8288 423.879 35.7708 428.75 35.7708C433.621 35.7708 438.716 34.8288 441.146 33.0467V35.0417C441.146 36.5642 436.431 38.6875 428.75 38.6875ZM441.146 46.7083C441.146 48.2308 436.431 50.3542 428.75 50.3542C421.069 50.3542 416.354 48.2308 416.354 46.7083V44.7148C418.783 46.4954 423.879 47.4375 428.75 47.4375C433.621 47.4375 438.716 46.4954 441.146 44.7148V46.7083ZM428.75 32.8542C421.069 32.8542 416.354 30.7308 416.354 29.2083V26.2917C416.354 24.7692 421.069 22.6458 428.75 22.6458C436.431 22.6458 441.146 24.7692 441.146 26.2917V29.2083C441.146 30.7308 436.431 32.8542 428.75 32.8542Z" fill="white"/>
<path d="M46.25 38L70.3108 54L91.4102 38L113.25 47.3913" stroke="#D9D9D9" stroke-opacity="0.5"/>
<path d="M206.25 51.5238L218.962 41L242.003 58L264.25 41" stroke="#D9D9D9" stroke-opacity="0.5"/>
<path d="M328.25 32L358.107 49L383.25 38.9545" stroke="#D9D9D9" stroke-opacity="0.5"/>
<circle cx="295.75" cy="29.5" r="26.5" fill="white"/>
<path d="M320.25 27.1623C314.62 -5.4573 272.028 0.855059 271.268 27.1623C273.726 28.4379 275.27 29.2129 275.27 29.2129C275.27 29.2129 273.967 29.9931 271.25 31.7292C276.159 63.7081 318.017 59.064 320.242 31.6924C317.581 30.0608 316.129 29.1999 316.129 29.1999C316.129 29.1999 317.374 28.607 320.25 27.1623ZM299.294 38.5518L295.298 31.6834L291.232 38.5518L288.164 38.3415L293.943 28.6L288.735 20.1901L291.874 19.9096L295.583 26.1471L299.293 20.1901L302.218 20.2602L297.367 28.5302L302.717 38.4819L299.294 38.5518Z" fill="#B80F0A"/>
<path d="M318.263 25.9009C310.63 -3.08445 275.65 4.75724 273.254 25.9009C278.107 28.6319 279.209 29.2738 279.209 29.2738C279.209 29.2738 277.333 30.4731 273.237 33.0745C278.444 60.9397 316.187 55.5847 318.255 33.0406C314.446 30.653 312.199 29.2617 312.199 29.2617C312.199 29.2617 317.335 26.3911 318.263 25.9009ZM299.293 38.5891L295.298 31.7223L291.232 38.5891L288.165 38.3789L293.943 28.6392L288.736 20.231L291.874 19.9504L295.583 26.1867L299.293 20.2308L302.217 20.3009L297.367 28.5688L302.716 38.5187L299.293 38.5891Z" fill="#B80F0A"/>
<path d="M5.98223 70V62.64H8.18223C8.92223 62.64 9.55223 62.75 10.0722 62.97C10.5922 63.19 11.0089 63.4833 11.3222 63.85C11.6422 64.2167 11.8756 64.6267 12.0222 65.08C12.1689 65.5333 12.2422 65.99 12.2422 66.45C12.2422 66.9967 12.1422 67.49 11.9422 67.93C11.7489 68.3633 11.4822 68.7367 11.1422 69.05C10.8022 69.3567 10.4089 69.5933 9.96223 69.76C9.51556 69.92 9.04223 70 8.54223 70H5.98223ZM7.43223 68.6H8.29223C8.65889 68.6 8.99223 68.5533 9.29223 68.46C9.59223 68.36 9.84889 68.2167 10.0622 68.03C10.2822 67.8433 10.4489 67.61 10.5622 67.33C10.6822 67.0433 10.7422 66.7167 10.7422 66.35C10.7422 65.87 10.6622 65.48 10.5022 65.18C10.3489 64.8733 10.1556 64.6367 9.92223 64.47C9.69556 64.3033 9.46223 64.19 9.22223 64.13C8.98223 64.0633 8.77889 64.03 8.61223 64.03H7.43223V68.6ZM15.3071 70.12C14.9004 70.12 14.5304 70.04 14.1971 69.88C13.8704 69.7133 13.6104 69.46 13.4171 69.12C13.2237 68.78 13.1271 68.3467 13.1271 67.82C13.1271 67.3267 13.2271 66.9 13.4271 66.54C13.6271 66.18 13.8904 65.9033 14.2171 65.71C14.5437 65.51 14.8904 65.41 15.2571 65.41C15.6904 65.41 16.0171 65.4833 16.2371 65.63C16.4637 65.77 16.6504 65.9267 16.7971 66.1L16.7371 66.27L16.8671 65.63H18.1671V70H16.7671V69.05L16.8771 69.35C16.8637 69.35 16.8237 69.39 16.7571 69.47C16.6904 69.5433 16.5904 69.6333 16.4571 69.74C16.3304 69.84 16.1704 69.9267 15.9771 70C15.7904 70.08 15.5671 70.12 15.3071 70.12ZM15.7071 68.98C15.8737 68.98 16.0237 68.9567 16.1571 68.91C16.2904 68.8567 16.4071 68.7833 16.5071 68.69C16.6071 68.59 16.6937 68.4667 16.7671 68.32V67.25C16.7137 67.1033 16.6337 66.98 16.5271 66.88C16.4204 66.7733 16.2937 66.6933 16.1471 66.64C16.0004 66.58 15.8371 66.55 15.6571 66.55C15.4571 66.55 15.2704 66.6033 15.0971 66.71C14.9304 66.81 14.7971 66.95 14.6971 67.13C14.5971 67.31 14.5471 67.5167 14.5471 67.75C14.5471 67.9833 14.6004 68.1933 14.7071 68.38C14.8137 68.5667 14.9537 68.7133 15.1271 68.82C15.3071 68.9267 15.5004 68.98 15.7071 68.98ZM20.0196 63.71H21.4196V65.61H22.4796V66.7H21.4196V70H20.0196V66.7H19.3396V65.61H20.0196V63.71ZM25.3852 70.12C24.9785 70.12 24.6085 70.04 24.2752 69.88C23.9485 69.7133 23.6885 69.46 23.4952 69.12C23.3019 68.78 23.2052 68.3467 23.2052 67.82C23.2052 67.3267 23.3052 66.9 23.5052 66.54C23.7052 66.18 23.9685 65.9033 24.2952 65.71C24.6219 65.51 24.9685 65.41 25.3352 65.41C25.7685 65.41 26.0952 65.4833 26.3152 65.63C26.5419 65.77 26.7285 65.9267 26.8752 66.1L26.8152 66.27L26.9452 65.63H28.2452V70H26.8452V69.05L26.9552 69.35C26.9419 69.35 26.9019 69.39 26.8352 69.47C26.7685 69.5433 26.6685 69.6333 26.5352 69.74C26.4085 69.84 26.2485 69.9267 26.0552 70C25.8685 70.08 25.6452 70.12 25.3852 70.12ZM25.7852 68.98C25.9519 68.98 26.1019 68.9567 26.2352 68.91C26.3685 68.8567 26.4852 68.7833 26.5852 68.69C26.6852 68.59 26.7719 68.4667 26.8452 68.32V67.25C26.7919 67.1033 26.7119 66.98 26.6052 66.88C26.4985 66.7733 26.3719 66.6933 26.2252 66.64C26.0785 66.58 25.9152 66.55 25.7352 66.55C25.5352 66.55 25.3485 66.6033 25.1752 66.71C25.0085 66.81 24.8752 66.95 24.7752 67.13C24.6752 67.31 24.6252 67.5167 24.6252 67.75C24.6252 67.9833 24.6785 68.1933 24.7852 68.38C24.8919 68.5667 25.0319 68.7133 25.2052 68.82C25.3852 68.9267 25.5785 68.98 25.7852 68.98Z" fill="#B80F0A"/>
</svg>
