<svg width="159" height="159" viewBox="0 0 159 159" fill="none" xmlns="http://www.w3.org/2000/svg">
<path d="M136.764 78.1822L135.788 76.4364L132.823 78.0941L135.711 79.8827L136.764 78.1822ZM136.764 78.1822L135.711 79.8827L135.712 79.8829L135.713 79.8835L135.717 79.8862L135.734 79.8968L135.803 79.9393L136.075 80.1083C136.317 80.258 136.677 80.4813 137.151 80.7754C138.098 81.3638 139.501 82.2357 141.322 83.3695C144.771 85.5168 149.718 88.6034 155.908 92.4821C151.794 130.09 118.26 153.57 83.0125 155.866C65.2496 157.022 47.2196 152.764 32.5408 142.311C18.1613 132.071 6.87247 115.798 2.22214 92.5236C8.82312 88.3302 13.6886 85.2333 16.9463 83.1576C18.6683 82.0604 19.941 81.2485 20.7834 80.7108L21.7265 80.1087L21.9604 79.9592L22.0187 79.922L22.0333 79.9127L22.0369 79.9103L22.0379 79.9097L22.0381 79.9096C22.0382 79.9095 22.0382 79.9095 20.9608 78.2245M136.764 78.1822C135.788 76.4364 135.788 76.4364 135.789 76.4363L135.789 76.436L135.792 76.4346L135.801 76.4291L135.84 76.4074L135.992 76.3227L136.57 75.9998C137.069 75.7208 137.786 75.3204 138.657 74.8344C140.399 73.8626 142.755 72.5489 145.213 71.1812C149.13 69.0014 153.332 66.6708 155.705 65.3769C149.015 41.1741 136.772 24.727 122.112 14.674C107.132 4.40221 89.4907 0.709497 72.3556 2.38933C38.4004 5.7181 6.89904 30.0348 2.20676 65.2993C10.041 69.7092 14.9319 72.4798 17.8874 74.1613C19.4372 75.0431 20.4552 75.6257 21.0866 75.9883C21.4023 76.1696 21.6215 76.296 21.7623 76.3774L21.917 76.4669L21.9546 76.4888L21.9642 76.4944L21.9668 76.4959L21.9675 76.4963L21.9678 76.4964C21.9679 76.4965 21.9679 76.4965 20.9608 78.2245M20.9608 78.2245L22.0382 79.9095L24.7972 78.1455L21.9679 76.4965L20.9608 78.2245ZM89.7323 111.929L90.3246 112.947L91.5022 112.923L103.519 112.676L106.787 112.608L105.239 109.729L86.9926 75.7927L103.451 47.7398L105.17 44.8097L101.774 44.7283L91.509 44.4825L90.3672 44.4552L89.7635 45.4246L78.479 63.5419L67.139 44.4753L66.4956 43.3935L65.242 43.5056L54.2257 44.4904L50.9965 44.7791L52.7034 47.5354L70.3419 76.0191L50.6805 109.165L49.0234 111.959L52.2638 112.181L63.0298 112.919L64.2595 113.003L64.8875 111.942L77.4233 90.7706L89.7323 111.929Z" stroke="#B80F0A" stroke-width="4"/>
</svg>
