<svg width="172" height="172" viewBox="0 0 172 172" fill="none" xmlns="http://www.w3.org/2000/svg">
<g clip-path="url(#clip0_1101_930)">
<path d="M172 77.7883C152.237 -36.7133 2.73042 -14.5556 0.0625986 77.7883C8.69204 82.266 14.1111 84.9863 14.1111 84.9863C14.1111 84.9863 9.53738 87.7249 0 93.8189C17.2299 206.071 164.16 189.77 171.971 93.6896C162.63 87.9625 157.536 84.9405 157.536 84.9405C157.536 84.9405 161.905 82.8594 172 77.7883ZM98.4385 117.768L84.4149 93.6581L70.1399 117.768L59.3725 117.03L79.6554 82.835L61.3746 53.3145L72.394 52.3297L85.4145 74.2247L98.438 53.3145L108.705 53.5603L91.6769 82.5897L110.456 117.522L98.4385 117.768Z" fill="#B7B5B1"/>
<path d="M165.024 73.3601C138.233 -28.3844 15.4442 -0.858443 7.0336 73.3601C24.0706 82.9465 27.9364 85.1996 27.9364 85.1996C27.9364 85.1996 21.3519 89.4095 6.97559 98.5409C25.2528 196.353 157.737 177.556 164.998 98.4218C151.628 90.0411 143.74 85.1573 143.74 85.1573C143.74 85.1573 161.768 75.0808 165.024 73.3601ZM98.4367 117.898L84.4141 93.7945L70.1421 117.898L59.3762 117.16L79.6561 82.9719L61.3793 53.4576L72.3957 52.4728L85.4152 74.3632L98.4367 53.4571L108.702 53.7029L91.6745 82.7251L110.453 117.651L98.4367 117.898Z" fill="#B80F0A"/>
</g>
<defs>
<clipPath id="clip0_1101_930">
<rect width="172" height="172" fill="white"/>
</clipPath>
</defs>
</svg>
