<svg width="198" height="198" viewBox="0 0 198 198" fill="none" xmlns="http://www.w3.org/2000/svg">
<g clip-path="url(#clip0_1087_946)">
<path d="M198 89.547C175.25 -42.2629 3.14315 -16.7559 0.0720611 89.547C10.006 94.7015 16.2442 97.833 16.2442 97.833C16.2442 97.833 10.9791 100.986 0 108.001C19.8344 237.222 188.975 218.456 197.967 107.852C187.213 101.259 181.35 97.7803 181.35 97.7803C181.35 97.7803 186.379 95.3847 198 89.547ZM113.319 135.57L97.1753 107.816L80.7425 135.57L68.3474 134.72L91.6963 95.3565L70.6521 61.3736L83.3372 60.24L98.326 85.4448L113.318 61.3736L125.137 61.6566L105.535 95.0741L127.153 135.287L113.319 135.57Z" fill="#B80F0A"/>
<path d="M189.97 84.4493C159.128 -32.6752 17.7785 -0.988385 8.09657 84.4493C27.7089 95.4848 32.1591 98.0784 32.1591 98.0784C32.1591 98.0784 24.5792 102.925 8.02979 113.436C29.0699 226.035 181.581 204.396 189.939 113.299C174.548 103.652 165.468 98.0298 165.468 98.0298C165.468 98.0298 186.221 86.4301 189.97 84.4493ZM113.316 135.72L97.1741 107.973L80.7448 135.72L68.3514 134.871L91.6969 95.514L70.6574 61.5382L83.339 60.4045L98.3265 85.604L113.316 61.5376L125.133 61.8206L105.532 95.2299L127.149 135.435L113.316 135.72Z" fill="#B80F0A"/>
</g>
<defs>
<clipPath id="clip0_1087_946">
<rect width="198" height="198" fill="white"/>
</clipPath>
</defs>
</svg>
